<?xml version="1.0" encoding="utf-8"?>
<!-- Generator: Adobe Illustrator 22.0.0, SVG Export Plug-In . SVG Version: 6.00 Build 0)  -->
<svg version="1.1" id="Layer_1" xmlns="http://www.w3.org/2000/svg" xmlns:xlink="http://www.w3.org/1999/xlink" x="0px" y="0px"
	 viewBox="0 0 64 60" style="enable-background:new 0 0 64 60;" xml:space="preserve">
<style type="text/css">
	.st0{fill:#FF330A;}
	.st1{fill:#FFFFFF;}
	.st2{fill:#F40000;}
</style>
<g id="Folder">
	<g>
		<path class="st0" d="M60,4H24c0-2.2-1.8-4-4-4H4C1.8,0,0,1.8,0,4v4v6v2c0,2.2,1.8,4,4,4h56c2.2,0,4-1.8,4-4V8C64,5.8,62.2,4,60,4z
			"/>
	</g>
</g>
<g id="File_1_">
	<g>
		<path class="st1" d="M56,8H8c-2.2,0-4,1.8-4,4v4c0,2.2,1.8,4,4,4h48c2.2,0,4-1.8,4-4v-4C60,9.8,58.2,8,56,8z"/>
	</g>
</g>
<g id="Folder_1_">
	<g>
		<path class="st2" d="M60,12H4c-2.2,0-4,1.8-4,4v40c0,2.2,1.8,4,4,4h56c2.2,0,4-1.8,4-4V16C64,13.8,62.2,12,60,12z"/>
	</g>
</g>
</svg>
